HIERARCHY
ROOT Hips
{
	OFFSET -3.958830 18.904000 13.208200
	CHANNELS 6 Xposition Yposition Zposition Zrotation Yrotation Xrotation 
	JOINT LHipJoint
	{
		OFFSET 0.000000 0.000000 0.000000
		CHANNELS 3 Zrotation Yrotation Xrotation
		JOINT LeftUpLeg
		{
			OFFSET 1.800000 -1.400000 0.085000
			CHANNELS 3 Zrotation Yrotation Xrotation
			JOINT LeftLeg
			{
				OFFSET 2.215000 -6.000000 0.000000
				CHANNELS 3 Zrotation Yrotation Xrotation
				JOINT LeftFoot
				{
					OFFSET 2.500000 -6.900000 0.000000
					CHANNELS 3 Zrotation Yrotation Xrotation
					JOINT LeftToeBase
					{
						OFFSET 0.200000 -0.500000 1.950000
						CHANNELS 3 Zrotation Yrotation Xrotation
						End Site
						{
							OFFSET 0.000000 0.000000 0.000000
						}
					}
				}
			}
		}
	}
	JOINT RHipJoint
	{
		OFFSET 0.000000 0.000000 0.000000
		CHANNELS 3 Zrotation Yrotation Xrotation
		JOINT RightUpLeg
		{
			OFFSET -1.800000 -1.400000 0.085000
			CHANNELS 3 Zrotation Yrotation Xrotation
			JOINT RightLeg
			{
				OFFSET -2.215000 -6.000000 0.000000
				CHANNELS 3 Zrotation Yrotation Xrotation
				JOINT RightFoot
				{
					OFFSET -2.500000 -6.900000 0.000000
					CHANNELS 3 Zrotation Yrotation Xrotation
					JOINT RightToeBase
					{
						OFFSET -0.200000 -0.500000 1.950000
						CHANNELS 3 Zrotation Yrotation Xrotation
						End Site
						{
							OFFSET 0.000000 0.000000 0.000000
						}
					}
				}
			}
		}
	}
	JOINT LowerBack
	{
		OFFSET 0.000000 0.000000 0.000000
		CHANNELS 3 Zrotation Yrotation Xrotation
		JOINT Spine
		{
			OFFSET -0.087000 1.940000 -0.288900
			CHANNELS 3 Zrotation Yrotation Xrotation
			JOINT Spine1
			{
				OFFSET 0.000000 1.950000 0.060000
				CHANNELS 3 Zrotation Yrotation Xrotation
				JOINT Neck
				{
					OFFSET 0.000000 0.000000 0.000000
					CHANNELS 3 Zrotation Yrotation Xrotation
					JOINT Neck1
					{
						OFFSET 0.000000 1.600000 0.340000
						CHANNELS 3 Zrotation Yrotation Xrotation
						JOINT Head
						{
							OFFSET 0.000000 1.667000 -0.240000
							CHANNELS 3 Zrotation Yrotation Xrotation
							End Site
							{
								OFFSET 0.000000 0.000000 0.000000
							}
						}
					}
				}
				JOINT LeftShoulder
				{
					OFFSET 0.000000 0.000000 0.000000
					CHANNELS 3 Zrotation Yrotation Xrotation
					JOINT LeftArm
					{
						OFFSET 2.700000 1.550000 -0.730000
						CHANNELS 3 Zrotation Yrotation Xrotation
						JOINT LeftForeArm
						{
							OFFSET 5.450000 0.000000 0.000000
							CHANNELS 3 Zrotation Yrotation Xrotation
							JOINT LeftHand
							{
								OFFSET 3.450000 0.000000 0.000000
								CHANNELS 3 Zrotation Yrotation Xrotation
								JOINT LeftHandIndex1
								{
									OFFSET 0.750000 0.000000 0.000000
									CHANNELS 3 Zrotation Yrotation Xrotation
									End Site
									{
										OFFSET 0.000000 0.000000 0.000000
									}
								}
							}
						}
					}
				}
				JOINT RightShoulder
				{
					OFFSET 0.000000 0.000000 0.000000
					CHANNELS 3 Zrotation Yrotation Xrotation
					JOINT RightArm
					{
						OFFSET -2.700000 1.550000 -0.730000
						CHANNELS 3 Zrotation Yrotation Xrotation
						JOINT RightForeArm
						{
							OFFSET -5.450000 0.000000 0.000000
							CHANNELS 3 Zrotation Yrotation Xrotation
							JOINT RightHand
							{
								OFFSET -3.450000 0.000000 0.000000
								CHANNELS 3 Zrotation Yrotation Xrotation
								JOINT RightHandIndex1
								{
									OFFSET -0.750000 0.000000 0.000000
									CHANNELS 3 Zrotation Yrotation Xrotation
									End Site
									{
										OFFSET 0.000000 0.000000 0.000000
									}
								}
							}
						}
					}
				}
			}
		}
	}
}
MOTION
Frames: 12
Frame Time: 0.016667
-1.178980 13.997980 -2.552970 -40.528623 2.922193 2.476172 -15.921446 9.839167 5.896622 -21.158686 -17.762452 -50.578131 16.128393 4.455111 66.694093 0.880207 10.722733 0.571478 0.437280 0.442940 0.419720 18.379337 -6.376337 4.982343 -19.439270 17.823609 -46.778875 14.857287 -27.753460 86.038834 -3.047555 -15.364006 -0.648525 0.265260 -0.033810 0.174680 -2.656856 -3.402853 -10.226967 -3.125561 10.573926 56.350449 -1.435223 7.416381 18.935053 1.394392 1.900974 -17.582752 -1.031421 5.934347 52.452865 5.865080 6.636510 -14.861290 -7.851093 -31.756146 6.184438 -8.155147 -21.694310 1.484588 4.767188 3.644223 -0.957349 -4.160013 2.387921 0.581110 -0.112900 0.323260 -0.041560 3.743258 34.525805 11.569281 14.544053 17.595018 -6.021324 -19.732597 11.738961 -3.231017 2.460832 -1.289011 -0.103300 0.203830 0.011890 -0.127570 
-1.163970 13.952920 -2.532130 -41.305040 3.094670 1.831521 -15.881907 9.597736 5.992019 -19.949705 -18.574505 -52.116896 15.550741 5.009814 69.656275 0.961450 11.370303 0.419732 0.350370 0.330060 0.385570 18.444185 -6.295815 5.079061 -20.520186 17.560540 -48.058483 17.413850 -29.236710 83.729660 -3.020215 -15.381774 -0.622934 0.227530 0.053320 0.133100 -2.803743 -3.128252 -10.328947 -1.587504 9.011266 56.493233 -2.827676 7.097812 18.761349 1.716040 1.724685 -17.630907 -1.336650 6.267455 52.012937 5.841060 6.621680 -14.254770 -7.682107 -31.554925 6.444753 -8.723693 -21.080196 1.659011 4.681042 2.988966 -0.961296 -4.188997 2.276160 0.597880 -0.072320 0.265890 -0.061330 2.975123 33.988960 11.556016 15.339763 17.242172 -5.897970 -20.150372 11.274339 -3.193108 2.438325 -1.218865 -0.187910 0.293780 0.071350 -0.143410 
-1.176530 13.853190 -2.487860 -43.217274 3.746979 1.287143 -15.828329 8.991205 6.169440 -16.881595 -20.421271 -56.320296 13.583261 7.044409 76.142977 1.253170 12.736007 0.121824 0.237240 0.210260 0.302150 18.578661 -5.905951 5.447251 -23.728273 16.962100 -52.312515 25.448959 -34.531871 78.846118 -3.113678 -15.817590 -0.648748 0.193910 0.200650 0.066090 -3.050274 -2.702844 -10.607969 1.706098 5.983983 55.208861 -4.961722 6.526073 18.626987 2.328314 1.321337 -17.273389 -1.947285 6.990251 50.197703 5.428660 6.784140 -11.541740 -7.623630 -30.795725 6.577960 -10.131250 -20.892543 2.181051 4.275978 2.554777 -0.877345 -4.236607 2.202428 0.541920 0.012540 0.157320 -0.038960 1.736405 32.547506 11.533711 16.800041 16.118784 -5.484722 -20.564668 11.263381 -3.235864 2.408511 -1.187659 -0.284710 0.402210 0.116070 -0.126700 
-1.169760 13.793880 -2.404930 -45.252906 3.422260 -0.792497 -15.754753 8.862934 6.028314 -12.962063 -19.888586 -57.795508 11.471265 10.037436 81.823637 1.604515 13.974734 -0.154560 0.192910 0.158510 0.254130 18.654345 -5.790999 5.714520 -25.246326 17.036631 -54.698473 31.733952 -37.341291 74.180928 -3.148649 -15.779703 -0.588939 0.153790 0.251490 0.048170 -3.264270 -2.467350 -10.710745 4.300643 3.765458 55.291805 -6.450172 6.217523 18.432933 2.821080 0.912842 -17.988580 -2.982074 7.938304 50.511774 6.053690 6.983070 -8.872410 -8.409358 -30.885203 7.174594 -11.139293 -19.580761 2.332856 3.791390 2.959853 -0.771534 -4.221775 2.222289 0.505480 0.034870 0.122260 -0.005500 1.672828 32.360665 11.874618 16.487125 14.288501 -5.923794 -21.391667 10.842443 -3.234404 2.449407 -1.223505 -0.294270 0.406870 0.107470 -0.100680 
-1.176100 13.715110 -2.304800 -46.860755 3.849583 -2.635342 -15.677580 8.838205 5.791609 -9.398881 -18.709107 -56.934480 6.939167 14.282135 82.618103 1.827828 14.558265 -0.293137 0.236550 0.235960 0.224660 18.714235 -5.752587 5.955573 -27.841198 15.907792 -56.109392 39.035318 -40.220231 68.654489 -3.161891 -15.535584 -0.506479 0.175860 0.229060 0.045510 -3.443095 -2.339473 -10.724713 6.671785 1.523010 54.303096 -7.448228 5.361675 18.973037 3.205635 0.459782 -18.167012 -4.032935 8.672939 50.619296 7.148430 6.708790 -7.242460 -8.212641 -30.483814 7.831433 -13.500425 -18.592060 2.598919 4.113505 2.595995 -0.622992 -4.124853 2.387711 0.448210 0.021080 0.124630 0.042820 0.799929 31.587753 11.923903 15.914814 13.254725 -5.967031 -22.141324 10.298811 -3.295761 2.503823 -1.314357 -0.236800 0.352240 0.051030 -0.058540 
-1.174670 13.670300 -2.199400 -48.926695 2.960389 -5.306930 -15.633236 8.873619 5.566755 -6.011189 -17.130304 -56.507671 4.954711 17.491109 85.348591 2.010537 15.471694 -0.514137 0.280450 0.283860 0.232860 18.744585 -5.697956 6.121710 -29.902398 15.485629 -56.684559 47.426852 -42.773202 62.662860 -3.163210 -15.111372 -0.377995 0.223130 0.249190 0.022150 -3.562579 -2.316381 -10.699646 8.418792 -0.048843 54.208103 -7.881080 4.821101 19.924237 3.486668 -0.587947 -18.000930 -6.097383 9.860544 49.522919 8.226150 6.399040 -7.864470 -7.879435 -29.586643 8.185244 -16.465954 -17.610812 2.956102 5.041686 2.355395 -0.585127 -4.058208 2.446862 0.463490 0.008370 0.119890 0.075150 -0.015706 30.984702 11.827470 12.866378 12.801795 -5.738141 -21.576065 9.699101 -3.066471 2.511322 -1.287183 -0.258870 0.401780 0.033120 -0.052160 
-1.172650 13.610980 -2.078940 -50.651434 1.394656 -8.233453 -15.573546 8.911791 5.367165 -1.369280 -14.699369 -55.818437 0.063178 22.228615 84.389389 2.158705 16.141384 -0.684873 0.343100 0.365900 0.250700 18.771205 -5.729963 6.207286 -29.942730 16.307762 -57.160865 51.401992 -45.280125 61.418302 -3.273848 -15.210933 -0.367553 0.273800 0.229440 -0.002110 -3.716269 -2.178059 -10.649608 10.390864 -1.478244 54.621013 -8.407807 4.374711 20.212524 3.755712 -1.759760 -17.450851 -8.509556 10.404281 48.436698 8.464410 5.572910 -8.813730 -8.510248 -28.260636 8.186105 -18.852002 -16.753742 3.088232 5.422988 1.547849 -0.547206 -3.960173 2.520118 0.459400 -0.019950 0.129970 0.106690 0.180058 30.208264 11.506218 10.461342 11.998770 -6.703070 -23.144385 11.105429 -3.615203 2.487708 -1.328334 -0.246450 0.422540 -0.008120 -0.038050 
-1.150430 13.541090 -1.948180 -51.974861 -0.462926 -10.992704 -15.536648 8.858250 5.363602 2.372878 -12.978874 -55.877079 -3.151138 25.780217 84.525468 2.307754 16.817774 -0.836769 0.367670 0.384360 0.268430 18.788049 -5.767277 6.166910 -29.191623 17.027932 -56.779669 54.262425 -46.759600 59.987710 -3.306418 -15.167053 -0.341939 0.302610 0.220100 -0.048780 -3.841445 -2.010327 -10.631745 12.070197 -2.856220 54.650775 -8.932519 4.025231 20.537117 4.060835 -2.806753 -17.221328 -10.906025 10.735895 47.937176 8.503890 4.505450 -8.741330 -8.742339 -27.379180 8.405060 -21.892826 -15.851210 3.288787 5.695272 1.251510 -0.493844 -3.871055 2.565027 0.465060 -0.047680 0.115740 0.121070 -0.071251 29.851312 11.266612 8.845209 10.657617 -8.556705 -26.500890 12.926868 -4.651985 2.474105 -1.407417 -0.271920 0.451780 -0.034240 -0.040590 
-1.098580 13.498540 -1.825620 -51.594509 -1.173013 -14.361611 -15.550006 8.844825 5.415384 4.635571 -12.234402 -55.239788 -6.718577 29.217973 83.896424 2.477417 17.388074 -0.982660 0.406630 0.426080 0.310090 18.756658 -5.722147 6.136713 -30.118002 16.562901 -55.722486 58.081067 -48.478171 57.892101 -3.317912 -14.965165 -0.304896 0.317510 0.163670 -0.037640 -3.794017 -2.095893 -10.653056 11.975937 -3.235797 56.133354 -9.255462 3.653430 21.010828 4.630544 -2.553731 -17.158257 -10.578829 10.635496 48.750710 7.992230 4.538090 -9.258480 -9.948422 -27.489356 8.713855 -22.295568 -14.625151 2.982611 5.578212 0.951618 -0.497327 -3.815247 2.607933 0.474240 -0.074860 0.149050 0.112410 -0.036675 29.695901 10.856988 7.403827 9.241390 -11.064894 -31.983154 13.408203 -6.084331 2.508576 -1.538528 -0.242830 0.418550 -0.058920 -0.050670 
-1.025340 13.431650 -1.685450 -51.115429 -2.320561 -18.091451 -15.536706 9.011089 5.326660 5.223477 -11.323128 -52.956554 -8.765661 31.289864 83.162741 2.627447 17.638587 -1.028858 0.467230 0.465290 0.377690 18.709219 -5.832195 6.070860 -29.887145 15.936683 -53.764294 68.537613 -51.614912 51.785207 -3.297121 -14.334548 -0.142020 0.313980 0.085590 -0.016740 -3.765327 -2.169188 -10.599049 12.402221 -3.814846 57.597871 -9.867053 3.571985 21.372997 5.522101 -2.191599 -17.670043 -10.498546 10.621219 50.746756 7.412220 4.437410 -8.466280 -11.812346 -27.928730 9.010813 -22.389142 -13.416308 2.707765 4.762250 0.816049 -0.452565 -3.724440 2.680461 0.483640 -0.114290 0.191560 0.124590 0.041997 29.945184 10.993662 4.894669 7.060683 -12.515236 -34.542903 13.263779 -6.536321 2.590732 -1.654597 -0.194110 0.346290 -0.122430 -0.061000 
-0.990340 13.361740 -1.539340 -48.538293 -2.218827 -21.251707 -15.579142 9.302457 5.173515 2.637299 -11.744015 -50.367989 -9.555120 31.910064 82.160163 2.666353 17.655503 -1.034175 0.515850 0.516360 0.407340 18.618027 -5.943006 5.981789 -30.849702 13.459607 -52.160139 83.225583 -53.717431 42.435044 -3.158757 -13.310189 0.117534 0.345150 0.053450 -0.003000 -3.556551 -2.515332 -10.503228 10.151471 -2.259632 57.884473 -9.428571 3.874050 22.089112 5.889618 -1.438852 -17.246238 -9.066077 9.967862 51.479598 7.115480 4.252030 -8.876220 -12.481119 -27.870257 8.948716 -22.506448 -13.527161 2.900981 3.563475 0.979490 -0.468290 -3.702039 2.703147 0.487920 -0.122760 0.207700 0.132800 -0.282694 29.557003 10.652171 5.488937 5.525021 -14.543138 -39.501613 15.112835 -8.352731 2.553936 -1.767682 -0.175120 0.323420 -0.145630 -0.068850 
-0.936020 13.283240 -1.399690 -46.889207 -1.908076 -23.757222 -15.604744 9.569083 5.115192 -0.461868 -12.880260 -48.923247 -6.244248 30.239856 84.957595 2.657421 17.707107 -1.058105 0.518630 0.502220 0.422230 18.558272 -6.163397 5.744964 -31.483563 10.247674 -49.264395 99.170956 -50.441442 29.951282 -2.986760 -12.247962 0.376938 0.343040 0.037390 0.010280 -3.426362 -2.724667 -10.401719 8.920286 -1.920385 58.032513 -9.401404 3.961956 22.039029 6.316315 -1.280070 -17.041679 -9.025700 9.933193 52.152445 6.912300 4.054610 -9.577250 -13.667769 -27.833086 9.075969 -23.334923 -13.151448 3.014780 3.536587 1.654829 -0.491523 -3.697967 2.705975 0.520510 -0.135060 0.219810 0.114470 -0.020960 29.510877 10.265915 5.384936 4.035181 -16.587636 -44.789667 17.271994 -10.374105 2.513479 -1.804437 -0.181360 0.321500 -0.125650 -0.087700 
